{"title":"Contraband 2012 TS XViD DTRG.","uid":6982485,"size":1095092670,"categoryP":"video","categoryS":"movies","magnet":"?xt=urn:btih:0e386f4724c39bb58b85e999ab4dca2e52b9ec48&amp;dn=Contraband+2012+TS+XViD+DTRG.&amp;tr=udp%3A%2F%2Ftracker.openbittorrent.com%3A80&amp;tr=udp%3A%2F%2Fopen.demonii.com%3A1337&amp;tr=udp%3A%2F%2Ftracker.coppersurfer.tk%3A6969&amp;tr=udp%3A%2F%2Fexodus.desync.com%3A6969","seeders":1,"leechers":0,"uploader":"moviesp2p","files":3,"time":1327446722,"description":"\nFormat                           : AVI\nFormat/Info                      : Audio Video Interleave\nFile size                        : 1.01 GiB\nDuration                         : 1h 42mn\nOverall bit rate                 : 1 415 Kbps\nWriting library                  : VirtualDub build 32842/release\n\nVideo\nID                               : 0\nFormat                           : MPEG-4 Visual\nFormat profile                   : Advanced Simple@L5\nFormat settings, BVOP            : 1\nFormat settings, QPel            : No\nFormat settings, GMC             : No warppoints\nFormat settings, Matrix          : Default (H.263)\nMuxing mode                      : Packed bitstream\nCodec ID                         : XVID\nCodec ID/Hint                    : XviD\nDuration                         : 1h 42mn\nBit rate                         : 1 278 Kbps\nWidth                            : 658 pixels\nHeight                           : 282 pixels\nDisplay aspect ratio             : 2.35:1\nFrame rate                       : 25.000 fps\nColor space                      : YUV\nChroma subsampling               : 4:2:0\nBit depth                        : 8 bits\nScan type                        : Progressive\nCompression mode                 : Lossy\nBits/(Pixel*Frame)               : 0.275\nStream size                      : 935 MiB (90%)\nWriting library                  : XviD 64\n\nAudio\nID                               : 1\nFormat                           : MPEG Audio\nFormat version                   : Version 1\nFormat profile                   : Layer 3\nCodec ID                         : 55\nCodec ID/Hint                    : MP3\nDuration                         : 1h 41mn\nBit rate mode                    : Constant\nBit rate                         : 128 Kbps\nChannel(s)                       : 2 channels\nSampling rate                    : 48.0 KHz\nCompression mode                 : Lossy\nDelay relative to video          : 9ms\nStream size                      : 93.3 MiB (9%)\nAlignment                        : Split accross interleaves\nInterleave, duration             : 40 ms (1.00 video frame)\nInterleave, preload duration     : 500 ms\n\n\n\n\n\n\n\n\n\n\n &lt;a href=&quot;\nhttp://www.imdb.com/title/tt1524137/&quot; rel=&quot;nofollow&quot; target=&quot;_NEW&quot;&gt;\nhttp://www.imdb.com/title/tt1524137/&lt;/a&gt;\n\n\n\n\n\n\n\n\n\n\n\nRatings: 6.8/10 from 3,239 users   Metascore: 52/100 \nReviews: 45 user | 95 critic | 34 from Metacritic.com\n\nTo protect his brother-in-law from a drug lord, a former smuggler heads to Panama to score millions of dollars in counterfeit bills.\nDirector:\nBaltasar KormÃƒÂ¡kur\nWriters:\nAaron Guzikowski (screenplay), Arnaldur IndriÃƒÂ°ason (film &quot;Reykjavik-Rotterdam&quot;), and 1 more credit Ã‚Â»\nStars:\nMark Wahlberg, Giovanni Ribisi and Kate Beckinsale\n\n\n\n\n\n\n\n\n\n\n\n\n\n\n\n\n\n\n\n\nSource Used\n\n\n\n\nVideo ..... Unknown ................Thanks\n\nAudio ...... Unknown ...................Thanks\n\nSubs  ...... English...... Unknown.......................Thanks\n\n\n\n\nRegardless of what some may say............This thing needed loads of TLC its still not great imo ,colours change constantly but tried to balance out as much as possible.Think this release is about played out people kinda realising vid aint the greatest.Dont expect too many hits but was asked so here goes\n\n\nWont bore with work done just check out the sample provided \n\n\nIf you dont mind cams then this is perfectly watchable !\n\n\n\n\n\n\nEnjoy\n\n\n\n\n\nGreetz to EMBER,ETRG,BHRG,CreWSaDe,RemixHD,LEGiTiMATE,iNPiRAL,EXQUiSiTE.......and maybe many more ","torrent":{"xt":"urn:btih:0e386f4724c39bb58b85e999ab4dca2e52b9ec48","amp;dn":"Contraband+2012+TS+XViD+DTRG.","amp;tr":["udp%3A%2F%2Ftracker.openbittorrent.com%3A80","udp%3A%2F%2Fopen.demonii.com%3A1337","udp%3A%2F%2Ftracker.coppersurfer.tk%3A6969","udp%3A%2F%2Fexodus.desync.com%3A6969"],"infoHash":"0e386f4724c39bb58b85e999ab4dca2e52b9ec48","infoHashBuffer":{"type":"Buffer","data":[14,56,111,71,36,195,155,181,139,133,233,153,171,77,202,46,82,185,236,72]},"announce":[],"urlList":[]}}